<svg width="195" height="41" viewBox="0 0 195 41" fill="none" xmlns="http://www.w3.org/2000/svg">
<path d="M149.18 25.691C149.18 21.8815 150.494 18.7386 153.123 16.2624C155.752 13.7862 158.757 12.5481 162.137 12.5481C165.517 12.5481 168.506 13.7862 171.104 16.2624C173.701 18.7069 175 21.8339 175 25.6434C175 28.2783 174.327 30.6275 172.981 32.691C171.636 34.7227 169.992 36.2307 168.052 37.2148C166.143 38.1672 164.156 38.6434 162.09 38.6434C160.024 38.6434 158.021 38.1354 156.081 37.1196C154.141 36.0719 152.498 34.5481 151.152 32.5481C149.837 30.5164 149.18 28.2307 149.18 25.691ZM158.992 29.1196C159.993 29.8815 161.01 30.2624 162.043 30.2624C163.076 30.2624 164.109 29.8656 165.141 29.072C166.174 28.2783 166.691 27.1037 166.691 25.5481C166.691 23.9926 166.206 22.8339 165.235 22.072C164.265 21.3101 163.217 20.9291 162.09 20.9291C160.963 20.9291 159.915 21.3259 158.945 22.1196C157.974 22.9132 157.489 24.0878 157.489 25.6434C157.489 27.1672 157.99 28.3259 158.992 29.1196Z" fill="#5C4033"/>
<path d="M143.174 21.5481L140.122 21.3577V27.9291C140.122 28.7862 140.247 29.4053 140.498 29.7862C140.779 30.1672 141.28 30.3577 142 30.3577C142.751 30.3577 143.314 30.3894 143.69 30.4529C144.097 30.4846 144.504 30.6275 144.911 30.8815C145.662 31.2942 146.037 32.3577 146.037 34.0719C146.037 36.0719 145.599 37.2942 144.723 37.7386C144.253 37.9608 143.831 38.1037 143.455 38.1672C143.111 38.1989 142.595 38.2148 141.906 38.2148C138.776 38.2148 136.335 37.3894 134.583 35.7386C132.83 34.0878 131.954 31.6434 131.954 28.4053V21.3577C130.451 21.4846 129.2 21.5481 128.198 21.5481L123.926 21.3577V27.9291C123.926 28.7862 124.051 29.4053 124.302 29.7862C124.583 30.1672 125.084 30.3577 125.804 30.3577C126.555 30.3577 127.118 30.3894 127.494 30.4529C127.901 30.4846 128.323 30.6275 128.761 30.8815C129.481 31.2942 129.841 32.3577 129.841 34.0719C129.841 36.0719 129.403 37.2942 128.527 37.7386C128.057 37.9608 127.635 38.1037 127.259 38.1672C126.915 38.1989 126.398 38.2148 125.71 38.2148C122.58 38.2148 120.139 37.3894 118.386 35.7386C116.634 34.0878 115.757 31.6434 115.757 28.4053V21.3577C115.132 21.4529 114.474 21.5005 113.786 21.5005C113.129 21.5005 112.565 21.2307 112.096 20.691C111.658 20.1513 111.438 19.2307 111.438 17.9291C111.438 16.6275 111.517 15.691 111.673 15.1196C111.83 14.5164 112.049 14.0878 112.33 13.8339C112.831 13.4212 113.457 13.2148 114.208 13.2148L115.757 13.4053V8.50052C115.757 7.77036 115.773 7.23068 115.804 6.88147C115.867 6.53226 116.023 6.15131 116.274 5.73861C116.681 4.94496 117.886 4.54814 119.889 4.54814C122.017 4.54814 123.284 5.13544 123.691 6.31004C123.848 6.81798 123.926 7.6275 123.926 8.73862V13.2624C125.397 13.2307 126.79 13.2148 128.104 13.2148L131.954 13.2624V8.50052C131.954 7.77036 131.969 7.23068 132.001 6.88147C132.063 6.53226 132.204 6.15131 132.423 5.73861C132.861 4.94496 134.082 4.54814 136.085 4.54814C138.213 4.54814 139.465 5.13544 139.84 6.31004C140.028 6.81798 140.122 7.6275 140.122 8.73862V13.4053C141.499 13.2783 142.532 13.2148 143.221 13.2148C143.94 13.2148 144.472 13.2466 144.817 13.31C145.192 13.3418 145.599 13.4846 146.037 13.7386C146.882 14.1513 147.305 15.3735 147.305 17.4053C147.305 19.4053 146.882 20.6275 146.037 21.0719C145.568 21.2942 145.145 21.437 144.77 21.5005C144.425 21.5323 143.893 21.5481 143.174 21.5481Z" fill="#5C4033"/>
<path d="M95.1275 38.1196C91.9665 38.1196 89.3376 36.9132 87.2407 34.5005C85.1751 32.0561 84.1423 29.0878 84.1423 25.5958V17.2624C84.1423 16.5005 84.158 15.945 84.1892 15.5958C84.2518 15.2466 84.3927 14.8339 84.6118 14.3577C85.0499 13.5005 86.2705 13.072 88.2735 13.072C90.4643 13.072 91.7475 13.6751 92.123 14.8815C92.3108 15.3894 92.4047 16.1989 92.4047 17.31V25.6434C92.4047 26.945 92.7646 27.9608 93.4844 28.691C94.2356 29.4212 95.2214 29.7862 96.442 29.7862C97.6939 29.7862 98.6954 29.4053 99.4465 28.6434C100.229 27.8815 100.62 26.8815 100.62 25.6434V17.2148C100.62 16.4847 100.636 15.945 100.667 15.5958C100.73 15.2148 100.886 14.7862 101.137 14.3101C101.543 13.4847 102.748 13.072 104.751 13.072C106.723 13.072 107.928 13.5005 108.366 14.3577C108.585 14.8339 108.71 15.2624 108.742 15.6434C108.804 15.9926 108.836 16.5323 108.836 17.2624V34.1196C108.836 34.818 108.804 35.3577 108.742 35.7386C108.71 36.0878 108.57 36.4846 108.319 36.9291C107.85 37.7545 106.645 38.1672 104.704 38.1672C102.795 38.1672 101.622 37.7862 101.183 37.0243C100.871 36.4846 100.714 35.8339 100.714 35.0719C100.589 35.2942 100.307 35.6116 99.869 36.0243C99.4309 36.437 99.0083 36.7862 98.6015 37.0719C97.5374 37.7704 96.3794 38.1196 95.1275 38.1196Z" fill="#5C4033"/>
<path d="M79.4932 13.4053C80.0879 13.5958 80.573 13.9291 80.9485 14.4053C81.3554 14.8497 81.5588 15.5799 81.5588 16.5958C81.5588 17.6116 81.2615 18.7228 80.6669 19.9291C80.0722 21.1355 79.2116 21.7386 78.0849 21.7386C77.5215 21.7386 76.9738 21.6116 76.4418 21.3577C75.941 21.1037 75.2681 20.9767 74.4231 20.9767C73.5781 20.9767 72.78 21.2783 72.0289 21.8815C71.3091 22.4847 70.9492 23.2148 70.9492 24.072V34.072C70.9492 34.8021 70.9179 35.3577 70.8553 35.7386C70.824 36.0878 70.6831 36.5005 70.4328 36.9767C69.9633 37.8021 68.7427 38.2148 66.771 38.2148C65.2688 38.2148 64.189 37.945 63.5318 37.4053C63.031 36.9608 62.7494 36.2783 62.6868 35.3577C62.6868 35.0402 62.6868 34.5799 62.6868 33.9767V17.2624C62.6868 16.5323 62.7024 15.9926 62.7337 15.6434C62.7963 15.2624 62.9371 14.8497 63.1562 14.4053C63.5944 13.5482 64.815 13.1196 66.818 13.1196C68.6958 13.1196 69.8694 13.4847 70.3389 14.2148C70.6831 14.7228 70.8553 15.2466 70.8553 15.7862C71.0118 15.564 71.2308 15.2942 71.5125 14.9767C71.8255 14.6593 72.4671 14.2307 73.4373 13.691C74.4075 13.1513 75.2525 12.8815 75.9723 12.8815C76.7234 12.8815 77.3494 12.9291 77.8501 13.0243C78.3509 13.0878 78.8986 13.2148 79.4932 13.4053Z" fill="#5C4033"/>
<path d="M45.2022 38.1196C42.0412 38.1196 39.4123 36.9132 37.3154 34.5005C35.2498 32.0561 34.217 29.0878 34.217 25.5958V17.2624C34.217 16.5005 34.2326 15.945 34.2639 15.5958C34.3265 15.2466 34.4674 14.8339 34.6864 14.3577C35.1246 13.5005 36.3452 13.072 38.3482 13.072C40.539 13.072 41.8221 13.6751 42.1977 14.8815C42.3855 15.3894 42.4794 16.1989 42.4794 17.31V25.6434C42.4794 26.945 42.8393 27.9608 43.5591 28.691C44.3102 29.4212 45.2961 29.7862 46.5167 29.7862C47.7686 29.7862 48.7701 29.4053 49.5212 28.6434C50.3036 27.8815 50.6948 26.8815 50.6948 25.6434V17.2148C50.6948 16.4847 50.7105 15.945 50.7418 15.5958C50.8044 15.2148 50.9608 14.7862 51.2112 14.3101C51.6181 13.4847 52.823 13.072 54.826 13.072C56.7977 13.072 58.0027 13.5005 58.4408 14.3577C58.6599 14.8339 58.7851 15.2624 58.8164 15.6434C58.879 15.9926 58.9103 16.5323 58.9103 17.2624V34.1196C58.9103 34.818 58.879 35.3577 58.8164 35.7386C58.7851 36.0878 58.6442 36.4846 58.3939 36.9291C57.9244 37.7545 56.7195 38.1672 54.7791 38.1672C52.87 38.1672 51.6963 37.7862 51.2582 37.0243C50.9452 36.4846 50.7887 35.8339 50.7887 35.0719C50.6635 35.2942 50.3819 35.6116 49.9437 36.0243C49.5055 36.437 49.083 36.7862 48.6762 37.0719C47.6121 37.7704 46.4541 38.1196 45.2022 38.1196Z" fill="#5C4033"/>
<path d="M18.6373 17.1672H26.8997C28.5898 17.2307 29.6226 17.6751 29.9981 18.5005C30.3111 19.1037 30.4676 19.9926 30.4676 21.1672V31.6434C30.4676 32.6593 30.0294 33.6275 29.1531 34.5481C26.5242 37.31 22.5807 38.691 17.3229 38.691C12.6596 38.691 8.60666 36.9132 5.164 33.3577C1.72133 29.7704 0 25.4529 0 20.4053C0 15.3577 1.75263 11.1513 5.25789 7.78624C8.76314 4.38942 12.8943 2.69101 17.6515 2.69101C21.3445 2.69101 23.2138 3.41409 26.5 5.89028C26.8997 6.6599 27.0621 6.99259 27.0621 7.78624C27.0621 8.54815 27.2198 8.39444 26.5 9.41032C25 10.5795 24 11.1653 23 11.7512C22.4054 11.7512 22.9564 11.5355 22.0677 12.2974C20.7532 11.4085 19.232 11.1196 17.4167 11.1196C15.0382 11.1196 12.9256 11.9767 11.0791 13.691C9.2326 15.3735 8.30934 17.5958 8.30934 20.3577C8.30934 23.0878 9.24825 25.4212 11.1261 27.3577C13.0039 29.2624 15.1321 30.2148 17.5106 30.2148C19.232 30.2148 20.7812 29.9291 22.1582 29.3577V24.1672H18.4495C17.4793 24.1672 16.7908 24.0402 16.3839 23.7862C15.9771 23.5323 15.7111 23.1672 15.5859 22.691C15.4607 22.1831 15.3981 21.5164 15.3981 20.691C15.3981 19.8339 15.4607 19.1513 15.5859 18.6434C15.7424 18.1354 16.0084 17.7862 16.3839 17.5958C16.9473 17.3101 17.6984 17.1672 18.6373 17.1672Z" fill="#5C4033"/>
<path d="M25.7166 5.14089C27.6946 6.29972 27.6946 9.15907 25.7166 10.3179L17.6515 15.0428C15.6515 16.2144 13.135 14.7721 13.135 12.4543V3.00454C13.135 0.686671 15.6515 -0.755618 17.6515 0.416028L25.7166 5.14089Z" fill="#5C4033"/>
<path d="M183.769 20.3833C183.769 20.001 184.079 19.691 184.462 19.691C184.844 19.691 185.154 20.001 185.154 20.3833V28.6829C185.154 29.0653 184.844 29.3752 184.462 29.3752C184.079 29.3752 183.769 29.0653 183.769 28.6829V20.3833Z" fill="#5C4033"/>
<path d="M188.5 20.3833C188.5 20.001 188.81 19.691 189.192 19.691C189.575 19.691 189.885 20.001 189.885 20.3833V28.6829C189.885 29.0653 189.575 29.3752 189.192 29.3752C188.81 29.3752 188.5 29.0653 188.5 28.6829V20.3833Z" fill="#5C4033"/>
<path d="M187.923 30.7598C187.923 29.9951 188.543 29.3752 189.308 29.3752C190.072 29.3752 190.692 29.9951 190.692 30.7598V38.8853C190.692 39.65 190.072 40.2699 189.308 40.2699C188.543 40.2699 187.923 39.65 187.923 38.8853V30.7598Z" fill="#5C4033"/>
<path d="M193.462 20.3833C193.462 20.001 193.771 19.691 194.154 19.691C194.536 19.691 194.846 20.001 194.846 20.3833V28.6829C194.846 29.0653 194.536 29.3752 194.154 29.3752C193.771 29.3752 193.462 29.0653 193.462 28.6829V20.3833Z" fill="#5C4033"/>
<path d="M183.769 28.77H194.846C194.846 29.7728 194.033 30.5857 193.03 30.5857H185.585C184.582 30.5857 183.769 29.7728 183.769 28.77Z" fill="#5C4033"/>
<path d="M181.998 25.119C181.998 28.1163 180.987 30.5461 178.999 30.5461C177.011 30.5461 176 28.1163 176 25.119C176 22.1217 177.011 19.6919 178.999 19.6919C180.987 19.6919 181.998 22.1217 181.998 25.119Z" fill="#5C4033"/>
<path d="M178.15 29.8359C178.15 29.1698 178.53 28.6298 178.999 28.6298C179.468 28.6298 179.848 29.1698 179.848 29.8359V39.4849C179.848 40.151 179.468 40.691 178.999 40.691C178.53 40.691 178.15 40.151 178.15 39.4849V29.8359Z" fill="#5C4033"/>
<path d="M181.998 25.119C181.998 28.1163 180.987 30.5461 178.999 30.5461C177.011 30.5461 176 28.1163 176 25.119C176 22.1217 177.011 19.6919 178.999 19.6919C180.987 19.6919 181.998 22.1217 181.998 25.119Z" fill="#5C4033"/>
<path d="M178.15 29.8359C178.15 29.1698 178.53 28.6298 178.999 28.6298C179.468 28.6298 179.848 29.1698 179.848 29.8359V39.4849C179.848 40.151 179.468 40.691 178.999 40.691C178.53 40.691 178.15 40.151 178.15 39.4849V29.8359Z" fill="#5C4033"/>
<path d="M182 25.1185C182 28.1161 180.989 30.5461 179.001 30.5461C177.013 30.5461 176.002 28.1161 176.002 25.1185C176.002 22.121 177.013 19.691 179.001 19.691C180.989 19.691 182 22.121 182 25.1185Z" fill="white"/>
<path d="M182 25.1185C182 28.1161 180.989 30.5461 179.001 30.5461C177.013 30.5461 176.002 28.1161 176.002 25.1185C176.002 22.121 177.013 19.691 179.001 19.691C180.989 19.691 182 22.121 182 25.1185Z" fill="white"/>
<path d="M181.998 25.119C181.998 28.1163 180.987 30.5461 178.999 30.5461C177.011 30.5461 176 28.1163 176 25.119C176 22.1217 177.011 19.6919 178.999 19.6919C180.987 19.6919 181.998 22.1217 181.998 25.119Z" fill="#5C4033"/>
<path d="M181.998 25.119C181.998 28.1163 180.987 30.5461 178.999 30.5461C177.011 30.5461 176 28.1163 176 25.119C176 22.1217 177.011 19.6919 178.999 19.6919C180.987 19.6919 181.998 22.1217 181.998 25.119Z" fill="#5C4033"/>
</svg>
